<svg xmlns="http://www.w3.org/2000/svg" xmlns:xlink="http://www.w3.org/1999/xlink" viewBox="0 0 361 641"><defs><style>.cls-1{stroke:#000;stroke-miterlimit:10;fill:url(#Naamloos_verloop_3);}.cls-2{opacity:0.05;}.cls-3{fill:#fff;}.cls-4{opacity:0.24;}.cls-5{opacity:0.2;}.cls-6{opacity:0.15;}</style><linearGradient id="Naamloos_verloop_3" x1="180.5" y1="640.5" x2="180.5" y2="0.5" gradientUnits="userSpaceOnUse"><stop offset="0" stop-color="#662d91"/><stop offset="1"/></linearGradient></defs><title>mobiel-width</title><g id="Laag_1" data-name="Laag 1"><rect class="cls-1" x="0.5" y="0.5" width="360" height="640"/></g><g id="Laag_2" data-name="Laag 2"><g class="cls-2"><path id="MobileMe" class="cls-3" d="M310,155.26A14.69,14.69,0,0,1,295.37,170H250.1a14.75,14.75,0,0,1-2.3-29.3,10.23,10.23,0,0,1-.13-1.59,9.3,9.3,0,0,1,9.27-9.34,9.16,9.16,0,0,1,6,2.22c2.88-6.54,6.57-12.5,16.92-12.5,12.55,0,18.5,9.75,18.5,20,0,.43,0,.86,0,1.28A14.71,14.71,0,0,1,310,155.26Z" transform="translate(0.5 0.5)"/></g><g class="cls-4"><path id="MobileMe-2" data-name="MobileMe" class="cls-3" d="M332,316.65c0,12.89-13.36,23.35-29.84,23.35H209.83C193.36,340,180,329.54,180,316.65c0-11.65,10.89-21.3,25.15-23.06a11.75,11.75,0,0,1-.28-2.53c0-8.17,8.46-14.79,18.9-14.79A22,22,0,0,1,236,279.78c5.87-10.35,13.4-19.8,34.51-19.8,25.61,0,37.74,15.45,37.74,31.76,0,.68,0,1.36-.09,2C321.76,295.94,332,305.36,332,316.65Z" transform="translate(0.5 0.5)"/></g><g class="cls-5"><path class="cls-3" d="M156.72,420.2a20,20,0,0,0-4,.41,16.57,16.57,0,0,0-23.2-11.78A22.1,22.1,0,0,0,88,423.92a18.42,18.42,0,0,0,.55,36.84h68.21a20.28,20.28,0,1,0,0-40.56Z" transform="translate(0.5 0.5)"/></g><g class="cls-6"><path class="cls-3" d="M110.85,217.28a16.17,16.17,0,0,0-3.26.33,13.41,13.41,0,0,0-18.79-9.54,17.91,17.91,0,0,0-33.67,12.22,14.93,14.93,0,0,0,.45,29.86h55.27a16.44,16.44,0,0,0,0-32.87Z" transform="translate(0.5 0.5)"/></g></g></svg>