<?xml version="1.0" encoding="utf-8"?>
<!-- Generator: Adobe Illustrator 23.0.1, SVG Export Plug-In . SVG Version: 6.00 Build 0)  -->
<svg version="1.1" id="Capa_1" xmlns="http://www.w3.org/2000/svg" xmlns:xlink="http://www.w3.org/1999/xlink" x="0px" y="0px"
	 viewBox="0 0 512 512" style="enable-background:new 0 0 512 512;" xml:space="preserve">
<style type="text/css">
	.st0{opacity:0.2;fill:#FFFFFF;}
	.st1{fill:#FFFFFF;}
	.st2{fill:#D8D6D6;}
	.st3{fill:#AFAEAE;}
	.st4{fill:#878484;}
	.st5{opacity:0.15;fill:#FFFFFF;}
	.st6{opacity:0.1;}
</style>
<circle class="st0" cx="259.8" cy="256" r="200"/>
<g>
	<g>
		<circle class="st1" cx="259.8" cy="256" r="175"/>
		<path class="st2" d="M261.8,431c95.7-1.1,173-79,173-175c0-1.5,0-3.1-0.1-4.6C432.3,157.5,356,82.1,261.8,81
			c75.9,19.7,132.1,90.6,132.1,175C393.9,340.4,337.7,411.2,261.8,431z"/>
		<path class="st3" d="M337.3,99c-11.9,6.5-20,19.2-20,33.7c0,21.2,17.2,38.4,38.4,38.4c17.9,0,32.9-12.2,37.2-28.8
			C377.6,124.4,358.6,109.6,337.3,99z"/>
		<path class="st4" d="M371.6,167.7c10.4-4.8,18.4-14,21.3-25.3c-0.2-0.2-0.3-0.4-0.5-0.5c-0.7-0.8-1.4-1.6-2.1-2.4
			c-0.3-0.3-0.5-0.6-0.8-0.9c-0.7-0.8-1.4-1.5-2.1-2.3c-0.3-0.3-0.6-0.6-0.9-0.9c-0.7-0.7-1.4-1.5-2.1-2.2c-0.3-0.3-0.6-0.6-0.9-0.9
			c-0.7-0.7-1.5-1.4-2.2-2.1c-0.3-0.3-0.6-0.6-0.9-0.9c-0.8-0.7-1.5-1.4-2.3-2.1c-0.3-0.3-0.6-0.5-0.9-0.8c-0.8-0.7-1.6-1.5-2.5-2.2
			c-0.2-0.2-0.5-0.4-0.7-0.7c-1-0.8-1.9-1.6-2.9-2.4c-0.1-0.1-0.3-0.2-0.4-0.3c-2.3-1.9-4.6-3.7-6.9-5.4c0,0,0,0,0,0
			c-1.1-0.8-2.3-1.7-3.4-2.5c-0.3-0.2-0.5-0.4-0.8-0.5c-0.9-0.6-1.8-1.3-2.7-1.9c-0.4-0.2-0.7-0.5-1.1-0.7c-0.8-0.5-1.7-1.1-2.5-1.6
			c-0.4-0.3-0.8-0.5-1.3-0.8c-0.8-0.5-1.6-1-2.4-1.5c-0.5-0.3-0.9-0.5-1.4-0.8c-0.8-0.5-1.6-0.9-2.4-1.4c-0.5-0.3-1-0.5-1.4-0.8
			c-0.8-0.4-1.6-0.9-2.3-1.3c-0.5-0.3-1-0.5-1.5-0.8c-0.8-0.4-1.6-0.8-2.3-1.2c-0.3-0.2-0.6-0.3-0.9-0.5c-5.5,3-10.1,7.3-13.5,12.4
			C343.2,126.5,359.6,145.7,371.6,167.7z"/>
		<circle class="st3" cx="382.1" cy="299.9" r="20.3"/>
		<path class="st4" d="M382.1,279.6c-1.7,0-3.4,0.2-5,0.6c14.8,8.6,14.9,30.7,0,39.4c1.6,0.4,3.3,0.6,5,0.6
			c11.2,0,20.3-9.1,20.3-20.3S393.3,279.6,382.1,279.6z"/>
		<circle class="st3" cx="287.7" cy="224.1" r="27.9"/>
		<path class="st4" d="M287.7,196.2c-1.6,0-3.2,0.1-4.7,0.4c9.9,5.2,16.6,15.5,16.6,27.5c0,11.9-6.7,22.3-16.6,27.5
			c1.5,0.3,3.1,0.4,4.7,0.4c15.4,0,27.9-12.5,27.9-27.9S303.1,196.2,287.7,196.2z"/>
		<circle class="st3" cx="164.6" cy="180.7" r="25"/>
		<path class="st4" d="M164.6,155.7c-2.4,0-4.8,0.4-7,1c8.3,4.8,13.9,13.7,13.9,24s-5.6,19.2-13.9,24c2.2,0.6,4.6,1,7,1
			c13.8,0,25-11.2,25-25C189.6,166.9,178.4,155.7,164.6,155.7z"/>
		<circle class="st3" cx="186.9" cy="320.2" r="49.3"/>
		<path class="st4" d="M186.9,270.9c-3.4,0-6.6,0.3-9.8,1c18.4,8.3,31.3,26.8,31.3,48.4s-12.8,40-31.3,48.4c3.2,0.6,6.5,1,9.8,1
			c27.2,0,49.3-22.1,49.3-49.3S214.2,270.9,186.9,270.9z"/>
	</g>
</g>
<circle class="st5" cx="259.8" cy="256" r="225"/>
<g class="st6">
	
		<image style="overflow:visible;" width="573" height="562" xlink:href="BD8749F0E3888F6.png"  transform="matrix(1 0 0 1 -27 -25)">
	</image>
</g>
</svg>
