<?xml version="1.0" encoding="utf-8"?>
<!-- Generator: Adobe Illustrator 23.0.1, SVG Export Plug-In . SVG Version: 6.00 Build 0)  -->
<svg version="1.1" id="Laag_1" xmlns="http://www.w3.org/2000/svg" xmlns:xlink="http://www.w3.org/1999/xlink" x="0px" y="0px"
	 viewBox="0 0 480 480" style="enable-background:new 0 0 480 480;" xml:space="preserve">
<style type="text/css">
	.st0{opacity:0.24;fill:#FFDF74;}
	.st1{fill:#FFDF74;}
	.st2{fill:#FCE575;}
	.st3{fill:#FFD551;}
	.st4{opacity:0.15;fill:#FFDF74;}
</style>
<path class="st0" d="M440.1,479.9c0.3-110.5-89-200.2-199.5-200.5c-110.5-0.3-200.2,89-200.5,199.5"/>
<path class="st1" d="M415,479.9c0.2-96.7-77.9-175.2-174.6-175.4C143.8,304.2,65.2,382.3,65,479"/>
<path class="st2" d="M111,479.1c0.1-51.9,31.2-98.5,79.2-118.7c0.8-0.3,1.6-0.5,2.3-0.5c2.3,0,4.6,1.4,5.5,3.7
	c1.3,3.1-0.1,6.6-3.2,7.9c-43.5,18.3-71.7,60.6-71.8,107.7"/>
<path class="st3" d="M415,479.9c0.2-96.5-74.4-175.2-166.3-175.4c-17.2,0-39.1,1.1-54.7,6.1c67.9,22.3,122.4,90.6,122.2,169.1"/>
<path class="st4" d="M465,480c0.3-124.3-100.2-225.3-224.4-225.6C116.3,254.1,15.3,354.6,15,478.8"/>
<path class="st2" d="M547.3,361.6"/>
</svg>
