<?xml version="1.0" encoding="utf-8"?>
<!-- Generator: Adobe Illustrator 23.0.1, SVG Export Plug-In . SVG Version: 6.00 Build 0)  -->
<svg version="1.1" id="Laag_1" xmlns="http://www.w3.org/2000/svg" xmlns:xlink="http://www.w3.org/1999/xlink" x="0px" y="0px"
	 viewBox="0 0 480 480" style="enable-background:new 0 0 480 480;" xml:space="preserve">
<style type="text/css">
	.st0{opacity:0.24;fill:#FFDF74;}
	.st1{fill:#FFDF74;}
	.st2{fill:#FCE575;}
	.st3{fill:#FFD551;}
	.st4{opacity:0.15;fill:#FFDF74;}
</style>
<path class="st0" d="M440,240c0-110.5-89.5-200-200-200C129.5,40,40,129.5,40,240c0,110.5,89.5,200,200,200
	C350.5,440,440,350.4,440,240z"/>
<path class="st1" d="M415.1,240c0-96.6-78.3-175-175-175c-96.7,0-175,78.4-175,175c0,96.7,78.3,175,175,175
	C336.7,415,415.1,336.6,415.1,240z"/>
<path class="st2" d="M287.9,359.4c-2.3,0-4.6-1.4-5.5-3.7c-1.3-3.1,0.1-6.6,3.2-7.9c43.5-18.4,71.5-60.8,71.5-107.9c0-3.3,2.7-6,6-6
	c3.3,0,6,2.7,6,6c0,51.9-30.9,98.6-78.8,118.9C289.5,359.2,288.7,359.4,287.9,359.4z"/>
<path class="st3" d="M163.9,240c0-78.5,57-146,124.9-168.1c-15.6-5.1-39.7-6.9-56.9-6.9c-92,0-166.8,78.5-166.8,175
	c0,96.5,74.8,175,166.8,175c17.2,0,39.1-1.2,54.7-6.2C218.6,386.6,163.9,318.4,163.9,240z"/>
<path class="st4" d="M465.1,240c0-124.3-100.7-225-225-225c-124.3,0-225,100.7-225,225c0,124.3,100.7,225,225,225
	C364.4,465,465.1,364.3,465.1,240z"/>
</svg>
